<?xml version="1.0" encoding="UTF-8"?>
<svg id="Layer_2" data-name="Layer 2" xmlns="http://www.w3.org/2000/svg" viewBox="0 0 115.26 144.87">
  <defs>
    <style>
      .cls-1 {
        fill: #2a2829;
      }

      .cls-2 {
        fill: none;
        stroke: #fff;
        stroke-width: .06px;
      }

      .cls-2, .cls-3, .cls-4 {
        stroke-miterlimit: 10;
      }

      .cls-5 {
        fill: #e42375;
      }

      .cls-6, .cls-4 {
        fill: #fff;
      }

      .cls-3 {
        fill: #231b20;
        stroke: #474748;
      }

      .cls-3, .cls-4 {
        stroke-width: .24px;
      }

      .cls-7 {
        fill: #e72375;
      }

      .cls-4 {
        stroke: #575757;
      }

      .cls-8 {
        fill: #e02773;
      }
    </style>
  </defs>
  <g id="Layer_1-2" data-name="Layer 1">
    <g>
      <g>
        <g>
          <path class="cls-5" d="m.37,115.95l13.63-1.45,15.25-16.39c-1.54-2.18-2.97-4.43-4.32-6.72L.37,115.95Z"/>
          <path class="cls-5" d="m92.04,30.6l3.17-3.41-1.95-4.14-5.15,5.15c1.29.83,2.6,1.63,3.93,2.39Z"/>
          <path class="cls-6" d="m93.26,23.05l-4.14-1.95-4.84,4.5c1.25.89,2.53,1.76,3.83,2.6l5.15-5.15Z"/>
          <path class="cls-6" d="m21.13,84.35L1.81,102.32l-1.45,13.63,24.56-24.56c-1.36-2.31-2.62-4.67-3.79-7.04Z"/>
          <polygon class="cls-6" points="99.35 32.31 101.65 30.01 96.27 20.04 94.24 22.07 99.35 32.31"/>
          <polygon class="cls-5" points="96.27 20.04 86.3 14.66 84 16.96 94.24 22.07 96.27 20.04"/>
          <polygon class="cls-6" points="94.18 17.95 96.99 19.32 98.36 22.13 111.96 8.54 107.77 4.36 94.18 17.95"/>
          <path class="cls-8" d="m115,6.17l-4.86-4.86c-.34-.34-.89-.34-1.23,0l-1.82,1.82c-.15.15-.15.4,0,.55l.68.68.45-.45,4.18,4.18-.45.45.68.68c.15.15.4.15.55,0l1.82-1.82c.34-.34.34-.89,0-1.23Z"/>
          <rect class="cls-8" x="109.77" y="3.26" width=".64" height="5.92" transform="translate(27.85 79.67) rotate(-45)"/>
          <path class="cls-5" d="m22,23.05l-1.95,4.14,3.01,3.24c1.33-.76,2.64-1.56,3.93-2.38l-5-5Z"/>
          <path class="cls-5" d="m86.04,98.13l15.23,16.37,13.63,1.45-24.53-24.53c-1.35,2.29-2.79,4.54-4.32,6.72Z"/>
          <path class="cls-6" d="m30.83,25.46l-4.68-4.36-4.14,1.95,5,5c1.3-.83,2.58-1.7,3.83-2.59Z"/>
          <path class="cls-6" d="m94.16,84.38c-1.18,2.37-2.44,4.73-3.8,7.04l24.53,24.53-1.45-13.63-19.29-17.94Z"/>
          <polygon class="cls-6" points="13.61 30.01 15.91 32.31 21.02 22.07 18.99 20.04 13.61 30.01"/>
          <polygon class="cls-5" points="21.02 22.07 31.26 16.96 28.96 14.66 18.99 20.04 21.02 22.07"/>
          <polygon class="cls-6" points="16.89 22.13 18.27 19.32 21.08 17.95 7.48 4.36 3.3 8.54 16.89 22.13"/>
          <path class="cls-8" d="m2.62,9.22l.68-.68-.45-.45L7.03,3.9l.45.45.68-.68c.15-.15.15-.4,0-.55l-1.82-1.82c-.34-.34-.89-.34-1.23,0L.25,6.17c-.34.34-.34.89,0,1.23l1.82,1.82c.15.15.4.15.55,0Z"/>
          <rect class="cls-8" x="2.21" y="5.9" width="5.92" height=".64" transform="translate(-2.89 5.48) rotate(-45)"/>
        </g>
        <path class="cls-4" d="m108.56,37.26s-8.65,68.64-50.93,83.96h0C15.35,105.9,6.7,37.01,6.7,37.01,32.78,31.35,57.63.34,57.63.34v.26s24.85,31.01,50.93,36.66Z"/>
        <g>
          <path class="cls-3" d="m80.44,45.56s0,0,0,0"/>
          <path class="cls-5" d="m104.57,40.47c-10.15-.62-22.7-5.54-29.73-8.64.35,7.66.69,14.95.93,19.95-5.11-2.22-10.32-4.3-13.81-5.65h0c0-.05,0-.11,0-.16-1.3-19.75-2.59-36.99-2.76-39.23.38.45,6.35,7.52,15.19,14.94,8.37,7.03,19.31,14.37,30.51,16.71,0,0-.1.74-.32,2.08Z"/>
          <path class="cls-5" d="m104.12,41.44s-.01.08-.02.12c-.96,5.82-3.99,21.29-11.08,36.68h0c-.08-.06-3.88-2.93-9.84-5.41-2.08-.87-4.42-1.68-6.96-2.32.16,8.43.2,16.41-.04,21.61-3.87,2.28-7.83,4.23-11.59,5.87-.22-7.9-.73-18.31-1.34-29.27-.02-.44-.05-.89-.07-1.33-.08-1.44-.16-2.88-.25-4.33-.06-1.06-.12-2.12-.19-3.18-.25-4.29-.52-8.58-.78-12.76,3.48,1.4,8.7,3.56,13.8,5.87,3.84,1.74,7.62,3.56,10.53,5.2,0,0,3.05-12.12,3.27-18.54.34.1.67.19,1.02.28,3.83,1.02,8.16,1.69,12.74,1.54.27,0,.53-.02.8-.03Z"/>
          <path class="cls-2" d="m44.29,73.46h0"/>
          <path class="cls-1" d="m61.96,99.3c-10.88,4.75-20.04,6.93-20.16,6.96h0c-5.55-4.78-10.14-10.68-13.93-16.97-1.29-2.15-2.49-4.34-3.61-6.55-.09-.19-.19-.37-.28-.56-1.47-2.97-2.79-5.97-3.97-8.92-6.94-17.42-8.94-33.32-8.94-33.32,0,0,0,0,0,0,0,0,0,0,0,0,.5-.11.99-.22,1.48-.35,0,0,0,0,.01,0,4.01-1.04,7.98-2.72,11.79-4.78,0,0,0,0,0,0h0s0,.03,0,.03c.08.39.75,3.74,1.66,7.85,0,0,0,0,0,0,.91,4.11,2.07,8.99,3.12,12.45v-.05c.58,2.24,1.24,4.41,1.95,6.51.03.08.06.17.09.25.26.78.54,1.56.81,2.32.07.19.13.38.2.56,0,0,0,0,0,0,.15.41.3.81.45,1.21.25.65.5,1.3.75,1.93,1.17,2.92,2.39,5.65,3.61,8.16.64,1.32,1.29,2.59,1.92,3.78,4.7,8.9,8.86,14.22,8.86,14.22.05-5.9-.25-12.71-.73-19.53,0-.02,0-.05,0-.07-.72-.05-2.13-.1-3.73.17h0c.53-.51,1.07-1.02,1.63-1.52.14-.13.28-.25.42-.38.14-.13.28-.25.43-.38.11-.1.23-.2.34-.3.23-.2.46-.4.69-.59.62-.53,1.25-1.02,1.9-1.46,1.14-.77,2.38-1.51,3.7-2.22,2.78.08,5.54.38,8.09.78.03.45.05.89.07,1.34.62,11.01,1.12,21.47,1.35,29.41Z"/>
          <path class="cls-1" d="m60.04,63.05c-2.61,1.09-5.11,2.25-7.35,3.51-1.24.7-2.4,1.42-3.47,2.18-.6.43-1.2.92-1.78,1.44-.22.19-.43.39-.64.58-.11.1-.22.2-.32.3-.13.12-.27.25-.4.37-.13.12-.26.25-.39.37-.52.49-1.03.99-1.52,1.5.02-.06.85-2.04,3.01-5.07-.58-10.18-1.43-20.69-2.66-28.02-.34-2.86-.56-4.55-.56-4.55-.09.11-.18.21-.28.32-3.05,3.41-9.06,7.06-12.38,9.01-.44.26-.84.49-1.17.69.81,6.08,1.93,12.48,3.42,17.34-.26-.75-.51-1.51-.76-2.28-.03-.08-.05-.17-.08-.25-.66-2.07-1.28-4.2-1.84-6.41v.05c-.97-3.4-2.06-8.2-2.91-12.24,0,0,0,0,0,0-.86-4.04-1.48-7.34-1.56-7.72v-.02s0-.01,0-.01c0,0,0,0,0,0,.78-.45,1.56-.91,2.33-1.39.17-.11.34-.21.5-.32,15.33-9.73,27.32-25.44,27.32-25.44v.23s0,0,.02.02c.16,2.28,1.36,19.81,2.57,39.89,0,.05,0,.11,0,.16h0c.25,4.14.5,8.38.74,12.61.06,1.05.12,2.1.18,3.15Z"/>
          <path class="cls-7" d="m73.67,97.09c-3.59,2.11-7.27,3.93-10.76,5.45-10.04,4.39-18.51,6.4-18.62,6.43,3.99,3.43,8.5,6.34,13.62,8.2,1.69-.61,3.31-1.22,4.87-2.03,12.41-6.42,20.85-18.65,26.51-30.93-4.13,5.16-9.75,9.43-15.62,12.89Zm-9.33,16.27c-.47-.19-.94-.38-1.4-.59-1.21-.54-2.37-1.15-3.49-1.82-.85.45-1.73.9-2.64,1.35,1.56.88,3.18,1.65,4.89,2.29-.57.23-1.16.44-1.75.66-1.66-.6-3.24-1.33-4.76-2.17-.4-.22-.8-.45-1.2-.7l-.03-.02c-1.88-1.14-3.64-2.45-5.29-3.86.03,0,.73-.18,1.94-.52,1.58,1.31,3.25,2.53,5.02,3.61.92-.45,1.81-.9,2.68-1.36-1.53-.99-2.98-2.09-4.36-3.27.56-.18,1.16-.38,1.79-.59.48.4.97.79,1.47,1.17.86.65,1.74,1.28,2.65,1.86.38.24.76.48,1.14.71h0c1.06.63,2.16,1.21,3.3,1.72h0c.52.23,1.04.45,1.57.66-.5.3-1,.59-1.52.86Zm4.01-2.5c-.1.07-.2.14-.3.21-.39.27-.78.54-1.17.79h0c-.56-.21-1.11-.45-1.65-.69-1.09-.49-2.15-1.04-3.18-1.65-.39-.23-.77-.46-1.15-.7-.87-.55-1.71-1.14-2.52-1.75-.48-.36-.96-.74-1.42-1.12.49-.17.99-.36,1.51-.55.14-.05.27-.1.41-.16,1.32-.5,2.72-1.05,4.17-1.67.39.31.79.61,1.2.9-1.28.61-2.62,1.22-4.01,1.82.75.55,1.52,1.09,2.3,1.59.38.24.76.47,1.14.7.96.56,1.95,1.08,2.97,1.55,1.07-.8,2.09-1.58,3.06-2.37.53.26,1.07.5,1.62.73-.95.84-1.95,1.63-2.98,2.37Zm6.74-6.07c-.3-.14-.59-.28-.88-.43-.1-.05-.2-.1-.31-.15-.7-.36-1.38-.74-2.05-1.14-.37-.22-.74-.45-1.1-.69-.23-.15-.45-.3-.67-.45.1.25.19.5.28.75.16.44.31.85.42,1.2.2.58.32.97.32.97,0,0-.52-.11-1.26-.28-.46-.1-1.01-.23-1.57-.36-.18-.04-.35-.08-.53-.13.12.08.24.16.37.24.37.24.74.47,1.11.69.75.45,1.52.87,2.31,1.27.2.1.39.19.59.29.29.14.58.27.87.4-.34.33-.69.66-1.05.98-.02.02-.04.04-.06.06-.28-.12-.56-.24-.84-.37-.25-.11-.49-.23-.73-.35-.84-.41-1.66-.86-2.46-1.34-.38-.22-.75-.46-1.12-.69-.57-.37-1.14-.76-1.69-1.16-.39-.28-.78-.58-1.16-.87.06-.02.11-.05.17-.07.49-.21.98-.44,1.47-.66.22.11.95.3,1.73.49.77.19,1.6.38,2.05.48.21.05.34.08.34.08,0,0-.03-.1-.09-.27-.09-.28-.26-.76-.45-1.28-.13-.35-.27-.71-.41-1.04.59-.3,1.17-.61,1.76-.92.31.23.62.45.93.67.26.19.53.37.8.55.36.24.72.47,1.09.69.62.38,1.26.75,1.9,1.09.05.03.09.05.14.07.29.15.57.3.86.44-.36.43-.72.84-1.1,1.25Zm3.36-4.13s-.03.04-.04.06c-.15.2-.3.4-.45.6-.14.18-.28.37-.42.55-.2.25-.39.5-.59.75-.11.13-.21.26-.32.39-.28-.15-.56-.3-.84-.45-.65-.35-1.29-.73-1.92-1.11-.37-.22-.73-.45-1.09-.69-.24-.15-.48-.31-.71-.47-.31-.21-.62-.43-.93-.64.16-.09.32-.18.49-.27.33-.19.66-.38.99-.57.29.2.59.4.89.6.16.11.32.21.49.32.36.23.72.46,1.08.69.55.34,1.1.67,1.66.99.31-.38.6-.76.89-1.13-.49-.28-.97-.56-1.45-.86-.36-.22-.72-.45-1.08-.68-.09-.06-.18-.12-.27-.18-.29-.19-.57-.38-.85-.57.02-.01.04-.03.06-.04h0c.39-.24.77-.48,1.15-.73.27.18.55.36.83.54.02.02.05.03.07.05.36.23.72.45,1.08.67.41.25.83.49,1.25.73.25.14.51.29.77.43-.24.34-.48.68-.73,1.02Zm2.6-3.82s-.03.06-.05.08c-.27.43-.54.86-.82,1.28-.13.2-.26.4-.4.59-.08.12-.17.24-.25.36-.2-.11-.4-.22-.59-.33-.05-.03-.11-.06-.17-.1.08-.12.17-.24.25-.35.14-.2.28-.4.41-.6.3-.44.58-.86.85-1.28-.16-.09-.31-.18-.47-.28-.1-.06-.19-.12-.28-.17-.34.38-.7.76-1.07,1.15-.17.18-.35.36-.53.54-.1.1-.21.21-.31.31-.15-.09-.29-.18-.44-.27-.19-.12-.38-.24-.57-.36-.02-.01-.03-.02-.05-.03,0,0-.01,0-.02-.01,0,0,0,0,0,0-.26-.17-.53-.34-.79-.52.14-.09.27-.18.41-.27.21-.14.42-.29.64-.44.46-.32.91-.64,1.36-.97.38-.28.75-.56,1.11-.85.03.02.06.04.09.06.22.14.45.29.67.42-.36.29-.73.57-1.11.86-.43.33-.87.66-1.33.99.17.11.34.21.51.32.16-.15.33-.3.49-.44.2-.18.4-.37.59-.55.04-.03.07-.07.1-.1.34-.32.66-.64.98-.95.06.03.11.07.17.1.19.11.38.22.57.33.24.14.48.27.73.41-.21.35-.43.71-.65,1.06Z"/>
        </g>
      </g>
      <g>
        <path class="cls-6" d="m77.68,130.22v-5.29q0-.7.7-.7c.66,0,1.32,0,1.98,0,.26,0,.37.04.37.34-.01,3.54,0,7.08,0,10.61,0,.29-.1.37-.37.36-.76-.01-1.52-.02-2.28,0-.32.01-.47-.13-.63-.37-1.15-1.79-2.32-3.58-3.48-5.36-.03-.05-.08-.1-.2-.26,0,.37,0,.62,0,.87,0,1.54-.01,3.07,0,4.61,0,.37-.06.53-.48.5-.73-.04-1.46-.02-2.18,0-.27,0-.37-.07-.37-.36,0-3.54.01-7.08,0-10.61,0-.3.11-.35.38-.35.73.02,1.46.03,2.18,0,.37-.02.56.13.74.43,1.12,1.77,2.27,3.53,3.41,5.29.03.05.08.1.21.28Z"/>
        <path class="cls-6" d="m.33,129.88c0-1.7.02-3.41-.01-5.11,0-.47.14-.56.58-.56,1.7.03,3.41,0,5.11,0,1.34,0,2.44.48,3.07,1.71.65,1.27.51,2.5-.42,3.6-.16.19-.12.27.05.42,1.09.97,1.46,2.33.98,3.53-.52,1.33-1.64,2.05-3.14,2.05-1.89,0-3.77-.01-5.66,0-.43,0-.59-.08-.58-.56.03-1.7.01-3.41.01-5.11Zm4.2,3.26c.3,0,.6.01.89,0,.68-.03,1.13-.48,1.15-1.12.01-.62-.44-1.1-1.11-1.15-.35-.02-.69,0-1.04,0q-1.08,0-1.08,1.07t1.2,1.21Zm.01-6.6h0c-.28-.01-.56,0-.84-.02-.28-.02-.38.06-.37.35.02.54,0,1.09,0,1.64,0,.15-.01.31.22.3.66-.01,1.33.02,1.98-.04.56-.05.97-.6.95-1.16-.02-.56-.46-1.02-1.04-1.07-.3-.02-.6,0-.89,0Z"/>
        <path class="cls-6" d="m93.96,129.88c0-1.69.02-3.37-.01-5.06-.01-.52.15-.61.63-.61,2.63.03,5.26.03,7.89,0,.48,0,.57.15.55.58-.03.56-.03,1.12,0,1.68.02.36-.07.48-.45.47-1.74-.02-3.47,0-5.21-.02-.34,0-.44.08-.44.43.02,1.18,0,1.18,1.19,1.18,1.37,0,2.75.02,4.12-.01.4,0,.47.11.45.47-.03.61-.03,1.22,0,1.83.02.36-.11.43-.44.43-1.62-.02-3.24,0-4.86-.02-.34,0-.46.06-.45.43.02,1.16,0,1.17,1.15,1.16,1.5,0,3.01,0,4.51,0,.35,0,.46.09.44.44-.03.63-.03,1.26,0,1.88.01.31-.1.39-.39.39-2.76,0-5.52-.01-8.29,0-.32,0-.38-.12-.38-.41.01-1.75,0-3.5,0-5.26,0,0,0,0,0,0Z"/>
        <path class="cls-6" d="m114.94,135.54c-1.06,0-2.11,0-3.16,0-.22,0-.26-.17-.34-.31-.54-.95-1.08-1.89-1.6-2.85-.14-.25-.29-.36-.58-.34-.48.03-1.09-.15-1.39.09-.32.25-.09.9-.1,1.37-.02.56-.02,1.12,0,1.69.01.29-.09.37-.37.36-.73-.02-1.46-.03-2.18,0-.45.02-.58-.09-.58-.56.03-2.18.01-4.36.01-6.55,0-1.26.01-2.51,0-3.77,0-.33.05-.45.42-.45,1.72.02,3.44,0,5.16,0,1.3,0,2.86,1.12,3.37,2.41.56,1.43.27,2.91-.84,3.9-.31.28-.32.46-.12.8.72,1.22,1.41,2.46,2.11,3.7.08.14.2.26.19.49Zm-7.28-7.56c0,.31,0,.63,0,.94,0,.19.07.27.26.27.56,0,1.13.02,1.68-.03.64-.06,1.1-.62,1.09-1.21-.01-.6-.54-1.13-1.2-1.17-.21-.01-.43,0-.64,0q-1.19,0-1.19,1.21Z"/>
        <path class="cls-6" d="m92.62,135.54c-1.23,0-2.36,0-3.49,0-.22,0-.31-.17-.42-.31-.86-1.05-1.72-2.1-2.58-3.14-.06-.07-.12-.14-.25-.3,0,1.17-.02,2.22,0,3.27,0,.39-.09.51-.49.5-.74-.03-1.49-.02-2.23,0-.3,0-.43-.05-.43-.4.02-3.52.01-7.04,0-10.56,0-.29.08-.36.36-.36.81.02,1.62.02,2.43,0,.3,0,.35.1.35.37-.01.91,0,1.82,0,2.73,0,.17-.04.35.08.57.9-1.11,1.8-2.18,2.66-3.27.23-.29.45-.41.83-.4,1.08.03,2.17.01,3.35.01-.74.86-1.42,1.65-2.09,2.43-.76.87-1.5,1.76-2.28,2.62-.23.26-.19.41,0,.65,1.3,1.71,2.59,3.43,3.87,5.14.09.13.18.26.32.47Z"/>
        <path class="cls-6" d="m54.08,124.23c-1.02,1.18-1.97,2.29-2.93,3.39-.46.54-.91,1.09-1.4,1.6-.26.28-.23.46-.01.74,1.32,1.73,2.63,3.48,3.94,5.22.06.09.18.15.14.35-1.14,0-2.29,0-3.44,0-.21,0-.3-.19-.41-.33-.9-1.1-1.8-2.2-2.7-3.3-.18.09-.1.24-.1.36,0,.96-.02,1.92,0,2.88,0,.29-.06.41-.38.4-.79-.02-1.59-.02-2.38,0-.33,0-.38-.13-.38-.41,0-3.51,0-7.01,0-10.52,0-.29.06-.4.38-.39.79.02,1.59.02,2.38,0,.33-.01.37.12.37.4-.02,1.07,0,2.15,0,3.35.62-.75,1.17-1.41,1.71-2.07.45-.55.81-1.3,1.39-1.58.56-.28,1.36-.08,2.05-.08.56,0,1.11,0,1.76,0Z"/>
        <path class="cls-6" d="m55.44,129.89c0-1.73.01-3.47,0-5.2,0-.38.1-.47.47-.46,1.57.02,3.14,0,4.71.01,1.82.01,3.43,1.11,3.92,2.65.76,2.4-1.13,5.02-3.71,5.13-.64.03-1.29.03-1.93,0-.34-.01-.41.11-.4.42.02.89,0,1.78.01,2.68,0,.31-.05.44-.4.43-.76-.02-1.52-.02-2.28,0-.33.01-.38-.12-.38-.41,0-1.75,0-3.5,0-5.25Zm3.13-1.95c0,.33,0,.66,0,.99,0,.19.07.26.26.26.54,0,1.09.02,1.63-.02.65-.04,1.15-.6,1.14-1.21,0-.58-.5-1.11-1.12-1.18-.24-.03-.49-.01-.74-.01q-1.16,0-1.16,1.17Z"/>
        <path class="cls-6" d="m30.65,135.54s-.03,0-.05,0c-1.07.18-1.86-.06-2.01-1.3-.02-.19-.16-.26-.36-.26-.98,0-1.95.01-2.93,0-.23,0-.31.1-.39.29-.18.42-.16,1.02-.56,1.22-.36.18-.87.05-1.32.05-.5,0-.99,0-1.49,0-.28,0-.29-.08-.2-.32,1.32-3.56,2.64-7.12,3.95-10.68.09-.25.21-.32.46-.31.68.02,1.36.01,2.03,0,.24,0,.34.07.43.3,1.3,3.55,2.61,7.09,3.93,10.63.12.32.06.4-.27.39-.41-.02-.83,0-1.24,0Zm-4.76-4.21c.52,0,1,0,1.47,0,.13,0,.29.03.23-.19-.26-.86-.52-1.72-.82-2.73-.32,1.06-.59,1.97-.88,2.92Z"/>
        <path class="cls-6" d="m31.95,129.52c.11-2.09,1.21-3.97,3.43-5.02,2.27-1.08,4.43-.71,6.42.8.24.18.24.29.02.47-.6.51-1.2,1.03-1.79,1.57-.22.2-.37.2-.64.05-1.04-.58-2.1-.59-3.08.13-1.01.74-1.41,1.79-1.14,3.01.25,1.15.97,1.95,2.15,2.22,1.03.24,1.95-.06,2.66-.83.28-.31.44-.25.7-.02.55.47,1.12.93,1.7,1.37.31.23.28.37.04.65-1.65,1.81-4.31,2.46-6.58,1.6-2.34-.89-3.89-3.14-3.88-6Z"/>
        <path class="cls-6" d="m11.42,129.83c0-1.72.02-3.44-.01-5.16,0-.4.12-.46.47-.45.74.03,1.49.03,2.23,0,.37-.02.47.09.47.47-.02,2.5,0,4.99-.02,7.49,0,.46.12.57.57.56,1.65-.03,3.31,0,4.96-.02.32,0,.43.07.42.41-.03.68-.02,1.36,0,2.03,0,.25-.03.39-.34.38-2.8-.01-5.59-.01-8.39,0-.33,0-.37-.13-.37-.41.01-1.77,0-3.54,0-5.31Z"/>
        <path class="cls-6" d="m68.96,129.9c0,1.73,0,3.47,0,5.2,0,.34-.08.46-.44.45-.74-.03-1.49-.02-2.23,0-.29,0-.4-.06-.4-.38.01-3.52.01-7.04,0-10.55,0-.31.09-.39.39-.39.76.02,1.52.03,2.28,0,.34-.01.4.11.4.42-.01,1.75,0,3.5,0,5.25Z"/>
        <path class="cls-8" d="m20.11,142.1c-.33.54-.67,1.07-1,1.61-.17.29-.29.31-.47,0-.32-.54-.59-1.1-1.07-1.69,0,.81-.01,1.51,0,2.21.01.36-.1.49-.48.48-1,0-1,0-.99-1,0-1.36.01-2.71,0-4.06,0-.36.1-.46.47-.5.71-.07,1.2.14,1.48.83.16.39.43.74.64,1.12.15.26.25.25.39-.01.25-.46.53-.91.77-1.38.18-.34.35-.57.81-.55,1,.04,1,0,1,1.03,0,1.36,0,2.71,0,4.06,0,.35-.1.45-.45.45-1.01,0-1.01.01-1.01-.98,0-.54,0-1.08,0-1.62h-.11Z"/>
        <path class="cls-8" d="m105.96,141.92c0-.78.01-1.55,0-2.33,0-.32.1-.44.42-.43.81.02,1.62,0,2.43.02,1.29.04,2,1.28,1.35,2.4-.14.23-.13.36.04.55.46.5.56,1.08.26,1.7-.29.61-.82.88-1.49.88-.84,0-1.69-.02-2.53.01-.42.02-.5-.14-.49-.51.02-.76,0-1.52,0-2.28h0Zm2.1,1.6c.16,0,.33,0,.49-.03.34-.07.52-.4.39-.71-.12-.31-1.23-.53-1.46-.29-.02.02-.03.06-.04.08-.21.54.04.93.61.94Zm.11-3.2c-.22,0-.32,0-.41,0-.33-.04-.35.19-.31.41.04.23-.21.61.26.66.26.03.53.02.78-.02.26-.04.45-.21.45-.5,0-.29-.18-.45-.45-.51-.14-.03-.29-.03-.32-.03Z"/>
        <path class="cls-8" d="m12.59,144.85c-1.7.02-2.97-1.2-2.98-2.89-.02-1.59,1.23-2.88,2.82-2.91,1.72-.03,3.01,1.21,3.03,2.89.02,1.62-1.23,2.89-2.87,2.91Zm-.04-1.42c.79,0,1.39-.65,1.39-1.49,0-.8-.65-1.48-1.41-1.49-.77,0-1.41.68-1.41,1.48,0,.85.62,1.5,1.44,1.49Z"/>
        <path class="cls-8" d="m37.45,141.91c0-.76.01-1.52,0-2.28,0-.33.08-.47.44-.47,1.19.02,2.38.02,3.57,0,.34,0,.42.13.42.44.01.92.02.92-.87.92-.58,0-1.16,0-1.74,0-.26,0-.35.09-.35.34,0,.25.04.41.35.4.68-.01,1.36,0,2.03,0,.31,0,.39.11.39.4,0,.96.02.96-.93.95-.51,0-1.03.01-1.54,0-.29,0-.31.15-.31.37,0,.22.02.38.31.38.73-.01,1.45,0,2.18,0,.33,0,.51.08.46.44,0,.02,0,.03,0,.05q.02.86-.82.86c-1.04,0-2.08-.01-3.12,0-.36,0-.5-.08-.48-.47.03-.78,0-1.55,0-2.33,0,0,0,0,0,0Z"/>
        <path class="cls-8" d="m70.22,141.95c0-.79,0-1.59,0-2.38,0-.3.09-.41.4-.4.74.02,1.49,0,2.23,0,.81.02,1.39.44,1.72,1.14.32.68.22,1.36-.33,1.91-.19.19-.15.33-.04.52.31.53.59,1.07.91,1.59.16.26.17.35-.19.37-1.26.05-1.28.07-1.94-1.2-.22-.42-.49-.51-.9-.48-.22.02-.29.1-.28.3,0,.12,0,.23,0,.35-.03.32.16.78-.09.94-.35.23-.83.08-1.26.08-.24,0-.21-.21-.21-.37,0-.79,0-1.59,0-2.38h0Zm2.07-1.5c-.59,0-.58,0-.59.55,0,.33-.07.66.48.63.63-.04.97-.21.98-.6,0-.38-.28-.57-.86-.58Z"/>
        <path class="cls-8" d="m47.55,144.7c-.56,0-1.03,0-1.5,0-.18,0-.25-.13-.32-.26-.2-.36-.41-.72-.61-1.08-.18-.31-.66-.47-.97-.33-.16.07-.14.2-.14.33,0,.28,0,.56,0,.84,0,.1.04.23-.01.29-.34.43-.81.11-1.22.2-.25.05-.3-.13-.29-.33,0-1.62,0-3.24,0-4.86,0-.27.11-.34.35-.34.76.01,1.52,0,2.28.01.79.02,1.37.42,1.69,1.11.31.67.25,1.36-.3,1.93-.18.19-.18.35-.04.56.36.6.7,1.22,1.09,1.92Zm-3.01-4.24c-.34-.06-.62,0-.57.51.03.33-.06.65.48.63.67-.03.95-.17.92-.6-.04-.47-.38-.56-.83-.54Z"/>
        <path class="cls-8" d="m55.2,141.94c0-.78.01-1.55,0-2.33,0-.3.05-.45.4-.44,1.21.02,2.42.02,3.62,0,.27,0,.37.08.38.37.03.99.04.99-.94.99-.55,0-1.09,0-1.64,0-.24,0-.37.06-.36.34,0,.25.04.41.35.41.68-.01,1.36.01,2.03,0,.3,0,.38.08.38.39.01.97.03.97-.95.97-.48,0-.96,0-1.44,0-.28,0-.41.06-.41.38,0,.34.17.37.43.37.71,0,1.42,0,2.13,0,.29,0,.4.08.41.39.02.96.03.96-.93.96-1.03,0-2.05,0-3.08,0-.3,0-.41-.09-.4-.39.02-.79,0-1.59,0-2.38,0,0,0,0,0,0Z"/>
        <path class="cls-8" d="m27.12,141.15c0-.5,0-.99,0-1.49,0-.1-.04-.23.01-.29.37-.43.86-.11,1.28-.19.25-.05.27.17.27.37,0,.94,0,1.88,0,2.83,0,.58.28.91.75.91.44,0,.75-.37.75-.91,0-.94,0-1.88,0-2.82,0-.28.08-.37.36-.38,1.21-.05,1.2-.06,1.2,1.14,0,.74,0,1.49,0,2.23,0,1.37-.98,2.32-2.36,2.31-1.3,0-2.26-.99-2.26-2.31,0-.46,0-.93,0-1.39Z"/>
        <path class="cls-8" d="m52.23,144.84c-.64.05-1.28-.14-1.9-.37-.24-.09-.32-.2-.16-.47.47-.83.46-.84,1.32-.57.45.14.9.24,1.36.12.16-.04.33-.1.36-.3.04-.22-.13-.32-.29-.41-.28-.15-.6-.17-.9-.24-.22-.06-.45-.1-.67-.17-.85-.25-1.26-.74-1.29-1.49-.03-.78.44-1.5,1.23-1.73,1-.3,1.99-.23,2.95.2.26.12.37.26.16.52-.01.01-.02.03-.02.04-.43.76-.43.76-1.24.51-.35-.11-.71-.16-1.08-.12-.19.02-.38.08-.41.29-.04.24.12.37.33.42.3.08.61.15.91.22.34.08.66.19.98.33.63.28.93.76.92,1.44,0,.69-.3,1.2-.93,1.51-.51.24-1.05.29-1.63.27Z"/>
        <path class="cls-8" d="m100.74,141.15c0-.54.02-1.09,0-1.63-.01-.27.08-.34.33-.35,1.22-.07,1.22-.07,1.22,1.16,0,.69,0,1.39,0,2.08,0,.55.33.9.79.89.44-.01.74-.34.74-.88.01-.94.02-1.88,0-2.82,0-.31.09-.4.39-.42,1.16-.06,1.16-.07,1.16,1.08,0,.81,0,1.62,0,2.43-.02,1.22-.98,2.14-2.25,2.17-1.27.02-2.28-.85-2.35-2.06-.03-.54,0-1.09,0-1.63h-.02Z"/>
        <path class="cls-8" d="m69.62,141.21c0,.46-.02.93,0,1.39.08,1.54-1.56,2.56-2.91,2.17-1.09-.31-1.7-1.1-1.7-2.24,0-.97.02-1.95,0-2.92,0-.36.11-.45.45-.45,1.09,0,1.09,0,1.09,1.09,0,.71,0,1.42,0,2.13,0,.54.32.91.77.91.44,0,.76-.37.76-.92,0-.92.01-1.85,0-2.77,0-.32.08-.43.41-.44,1.13-.02,1.13-.03,1.13,1.11,0,.31,0,.63,0,.94Z"/>
        <path class="cls-8" d="m22.22,141.88c0-.76.01-1.52,0-2.28,0-.31.08-.45.41-.44.71.02,1.42,0,2.13.01,1.11.04,1.95.84,1.96,1.83,0,1.03-.86,1.91-1.96,1.98-1.05.06-1.07.06-1.04,1.12.02.49-.14.62-.61.6-1.02-.05-.88.13-.89-.9,0-.64,0-1.29,0-1.93Zm1.53-.88c-.1.46.04.65.53.61.58-.04.94-.24.9-.62-.05-.45-.37-.56-.79-.56-.41,0-.81-.03-.64.56Z"/>
        <path class="cls-8" d="m7.49,139.04c.62-.04,1.19.18,1.71.57.2.15.26.27.03.45-.2.15-.39.31-.56.49-.23.25-.49.23-.77.12-.64-.25-1.17-.08-1.59.53-.36.54-.28,1.25.18,1.72.48.49,1.2.62,1.7.17.42-.37.65-.19.94.08.04.03.07.07.11.1q.58.52-.04,1c-.98.76-2.39.78-3.43.06-1.03-.72-1.49-2.08-1.11-3.3.37-1.18,1.5-2.01,2.81-2.01Z"/>
        <path class="cls-8" d="m93.26,144.85c-1.36,0-2.44-.79-2.84-2.02-.38-1.16.06-2.51,1.08-3.26.98-.72,2.45-.71,3.44,0,.24.18.3.32.02.51-.14.09-.26.21-.37.33-.28.29-.54.42-.98.21-.55-.26-1.2.03-1.53.57-.36.58-.28,1.29.2,1.77.45.45,1.17.57,1.67.15.43-.36.66-.2.98.09.68.62.68.7-.14,1.21-.49.31-1.02.46-1.51.43Z"/>
        <path class="cls-8" d="m62.67,144.85c-1.24,0-2.34-.74-2.72-1.85-.45-1.28-.08-2.59.94-3.38.96-.74,2.36-.78,3.39-.11.32.21.43.39.04.64-.15.1-.29.23-.41.36-.21.23-.41.31-.73.15-.6-.29-1.3-.05-1.64.5-.39.62-.29,1.37.23,1.84.5.45,1.19.5,1.71.05.28-.24.47-.24.7,0,.06.06.13.11.19.16.69.57.69.63-.07,1.16-.49.34-1.04.49-1.64.47Z"/>
        <path class="cls-8" d="m85.35,141.06c.3-.58.57-1.07.81-1.57.11-.23.25-.32.5-.29.43.05,1.04-.21,1.25.11.16.25-.3.74-.49,1.12-.16.33-.32.66-.52.96-.59.88-.88,1.83-.73,2.89.05.37-.12.43-.45.44-1.14,0-1.19.01-1.13-1.13.05-1.01-.6-1.72-.97-2.54-.24-.52-.54-1.02-.82-1.53-.13-.24-.08-.33.19-.32.02,0,.03,0,.05,0q1.34-.06,1.95,1.16c.1.21.21.41.37.71Z"/>
        <path class="cls-8" d="m33.9,142.59c0-.55-.02-1.09,0-1.64.01-.3-.06-.44-.38-.4-.13.01-.26,0-.4,0-.97,0-.81.09-.84-.86-.02-.42.11-.54.53-.53,1.24.02,2.48.02,3.72,0,.38,0,.52.09.51.5-.04,1.01.15.89-.9.89-.84,0-.7-.04-.7.72,0,.99-.01,1.98,0,2.97,0,.33-.07.47-.44.46-1.1,0-1.1,0-1.1-1.08,0-.35,0-.69,0-1.04,0,0,0,0,0,0Z"/>
        <path class="cls-8" d="m80.04,139.17c.64,0,1.29,0,1.93,0,.31,0,.45.08.43.42-.05,1.11.16.98-.99.95-.51-.01-.65.12-.63.63.04,1.02,0,2.05.02,3.07,0,.33-.09.49-.44.47-1.27-.05-1.09.21-1.11-1.05,0-.89-.01-1.79,0-2.68,0-.35-.12-.49-.46-.44-.07,0-.13,0-.2,0-1.05-.02-.94.23-.96-.98,0-.3.1-.41.4-.4.66.02,1.32,0,1.98,0h0Z"/>
        <path class="cls-8" d="m96.01,141.94c0-.79,0-1.59,0-2.38,0-.29.06-.45.4-.35.14.04.3.05.44.03.75-.1.76-.1.74.62-.02.95.06,1.91-.05,2.86-.04.38.09.66.62.61.65-.06,1.32-.01,1.98-.01.2,0,.37.02.27.3-.04.12-.01.26-.01.39,0,.68,0,.68-.66.69-1.11,0-2.21-.01-3.32,0-.31,0-.4-.09-.4-.4.02-.79,0-1.59,0-2.38h0Z"/>
        <path class="cls-8" d="m75.55,141.94c0-.79,0-1.58,0-2.38,0-.27.07-.37.35-.39,1.15-.08,1.15-.09,1.16,1.07,0,1.34-.01,2.67,0,4.01,0,.38-.11.47-.48.47-1.04-.01-1.04,0-1.04-1.04,0-.58,0-1.16,0-1.73Z"/>
      </g>
    </g>
  </g>
</svg>