<?xml version="1.0" encoding="UTF-8"?>
<svg id="Layer_2" data-name="Layer 2" xmlns="http://www.w3.org/2000/svg" viewBox="0 0 573.99 166.41">
  <defs>
    <style>
      .cls-1, .cls-2, .cls-3, .cls-4, .cls-5 {
        fill: #fff;
      }

      .cls-2 {
        font-size: 17.63px;
        letter-spacing: -.01em;
      }

      .cls-2, .cls-3, .cls-4, .cls-5 {
        font-family: Arial-BoldMT, Arial;
        font-weight: 700;
      }

      .cls-6 {
        letter-spacing: 0em;
      }

      .cls-7 {
        letter-spacing: -.04em;
      }

      .cls-3 {
        font-size: 13.86px;
      }

      .cls-4 {
        font-size: 24.28px;
      }

      .cls-8 {
        letter-spacing: -.04em;
      }

      .cls-5 {
        font-size: 16.78px;
      }
    </style>
  </defs>
  <g id="Layer_1-2" data-name="Layer 1">
    <g>
      <g>
        <g>
          <path class="cls-1" d="m329.22,44.09c-2.05-1.15-6.15-2.05-9.75-2.05-11.8,0-19.18,9.1-19.18,19.1,0,6.72,3.85,10.66,9.18,10.66,4.35,0,8.03-2.13,10.58-6.31h.16c.41,4.35,3.2,6.31,7.05,6.31,8.85,0,15.58-7.54,15.58-19.51,0-13.77-10.33-23.69-24.76-23.69-18.53,0-30.66,14.51-30.66,31.23s11.97,25.82,25.58,25.82c5.82,0,10.08-.74,15-2.95l-1.48-4.75c-3.28,1.72-7.71,2.62-11.89,2.62-12.21,0-20.99-7.79-20.99-21.48,0-15.66,10.98-25.49,23.53-25.49s19.59,8.28,19.59,18.94c0,9.43-4.43,13.94-7.95,13.85-2.3-.08-2.87-2.3-2.05-7.13l2.46-15.17Zm-9.67,12.54c-.74,4.75-3.93,8.61-6.97,8.61-2.71,0-4.1-1.97-4.1-5.08,0-6.31,4.26-11.64,9.67-11.64,1.07,0,1.89.16,2.54.33l-1.15,7.79Z"/>
          <path class="cls-1" d="m543.58,78.19c3.03,1.64,7.71,2.79,12.95,2.79,11.48,0,17.38-5.49,17.38-12.95-.08-5.9-3.28-9.75-10.9-12.38-4.92-1.72-6.48-2.71-6.48-4.59,0-2.05,1.72-3.28,4.75-3.28,3.44,0,6.89,1.31,8.69,2.29l2.21-8.61c-2.46-1.23-6.64-2.3-11.31-2.3-9.92,0-16.31,5.66-16.31,13.12-.08,4.76,3.11,9.26,11.39,12.05,4.67,1.56,5.9,2.54,5.9,4.59s-1.56,3.36-5.33,3.36-8.44-1.64-10.74-3.03l-2.21,8.94Z"/>
          <path class="cls-1" d="m536.78,39.99h-12.54v23.86c0,.98-.08,1.97-.41,2.71-.82,1.97-2.79,4.34-6.23,4.34-4.34,0-6.23-3.52-6.23-9.35v-21.56h-12.54v23.53c0,12.38,5.98,17.46,14.1,17.46,7.21,0,10.98-4.1,12.54-6.56h.25l.57,5.66h10.82c-.16-3.36-.33-7.62-.33-12.87v-27.22Z"/>
          <path class="cls-1" d="m431.76,80.98h12.13v-23.36c0-.98.08-2.13.49-3.11.74-2.05,2.62-4.51,5.82-4.51,3.93,0,5.74,3.44,5.74,8.53v22.46h12.13v-23.45c0-.98.16-2.29.49-3.2.82-2.38,2.87-4.34,5.74-4.34,4.02,0,5.9,3.36,5.9,9.18v21.81h12.13v-23.61c0-11.97-5.82-17.38-13.53-17.38-2.95,0-5.41.66-7.62,1.97-1.89,1.15-3.69,2.79-5.17,4.84h-.16c-1.72-4.18-5.82-6.8-10.98-6.8-6.89,0-10.41,3.77-12.13,6.31h-.25l-.57-5.41h-10.49c.16,3.53.33,7.79.33,12.79v27.3Z"/>
          <path class="cls-1" d="m423.4,70c-1.88.74-4.18,1.23-7.13,1.23-6.07,0-10.98-3.85-10.98-11.23-.08-6.56,4.18-11.23,10.74-11.23,3.28,0,5.49.57,6.97,1.23l1.97-9.26c-2.62-.98-6.23-1.56-9.51-1.56-14.92,0-22.95,9.59-22.95,21.31,0,12.62,8.28,20.49,21.23,20.49,4.75,0,8.93-.82,11.15-1.8l-1.48-9.18Z"/>
          <path class="cls-1" d="m349.22,80.98h12.46v-23.77c0-.9.08-1.97.41-2.79.9-2.21,2.95-4.34,6.23-4.34,4.67,0,6.48,3.61,6.48,8.85v22.05h12.46v-23.45c0-12.05-6.07-17.54-14.02-17.54-2.3,0-4.67.57-6.48,1.56-1.97,1.07-3.61,2.38-4.92,4.1h-.16v-23.6h-12.46v58.94Z"/>
          <path class="cls-1" d="m261.46,31.39v8.69h-5.33v9.18h5.33v16.4c0,5.66,1.15,9.51,3.44,11.89,1.97,2.05,5.33,3.44,9.35,3.44,3.52,0,6.48-.41,8.12-1.07l-.08-9.43c-.9.16-2.13.33-3.69.33-3.77,0-4.92-2.21-4.92-7.05v-14.51h8.94v-9.18h-8.94v-11.48l-12.21,2.79Z"/>
          <path class="cls-1" d="m225.47,80.98v-30.9h11.8v30.9h12.46v-40.09h-24.35v-1.39c0-4.43,2.3-7.79,8.85-7.79,3.93,0,7.13.98,9.1,2.05l2.38-9.43c-2.46-1.48-7.54-2.46-11.8-2.46-12.38,0-20.99,6.23-20.99,17.3v1.72h-5.25v9.18h5.25v30.9h12.54Z"/>
        </g>
        <text class="cls-4" transform="translate(206.68 147.97)"><tspan x="0" y="0">KHO</tspan><tspan class="cls-7" x="53.95" y="0">A</tspan><tspan class="cls-6" x="70.58" y="0" xml:space="preserve"> CÔNG NGHỆ THÔNG TIN</tspan></text>
        <text class="cls-3" transform="translate(205.82 119.64)"><tspan x="0" y="0">TRƯỜNG ĐẠI HỌC KHO</tspan><tspan class="cls-8" x="159.59" y="0">A</tspan><tspan x="169.09" y="0" xml:space="preserve"> HỌC TỰ NHIÊN, ĐHQG - HCM</tspan></text>
      </g>
      <g id="Logo_KHTN" data-name="Logo KHTN">
        <g>
          <path class="cls-1" d="m99.61,102.13c-1.96-.47-3.83-.88-5.67-1.37-5.66-1.51-11.09-3.59-16.08-6.71-2.87-1.8-5.49-3.9-7.75-6.42-.53-.59-1.04-1.23-1.45-1.92-1.12-1.86-1.23-3.81-.2-5.73.62-1.16,1.36-2.28,2.15-3.34,1.87-2.51,4.02-4.77,6.22-6.98,5.95-5.99,12.28-11.56,18.75-16.97,4.88-4.08,9.8-8.12,14.7-12.17.23-.19.48-.37.88-.67-3.87,20.85-7.7,41.52-11.55,62.29Zm-7.99-23.52c.27.2.54.46.86.63.65.34,1.31.71,2,.91.91.26,1.75-.18,2.11-1.06.19-.47.3-1.01.32-1.52.03-.67-.06-1.34-.1-2.05.26-.11.52-.19.76-.32.49-.26,1-.5,1.44-.83,1.5-1.12,1.52-2.54.04-3.67-.46-.35-1-.6-1.52-.87-.24-.13-.49-.23-.76-.35.04-.31.12-.59.11-.85-.04-.83,0-1.68-.21-2.47-.28-1.07-1.26-1.57-2.33-1.24-.69.22-1.33.61-1.98.96-.29.16-.54.39-.82.6-.3-.22-.55-.46-.84-.62-.59-.33-1.18-.69-1.81-.9-1.27-.41-2.3.19-2.57,1.5-.14.68-.09,1.4-.1,2.11,0,.33.05.65.07.95-.41.18-.73.29-1.02.45-.43.23-.88.46-1.26.76-1.42,1.12-1.42,2.5.03,3.61.46.35,1,.6,1.52.88.24.13.49.23.76.35-.04.35-.11.65-.11.95,0,.58-.05,1.18.05,1.74.31,1.76,1.46,2.38,3.11,1.66.75-.33,1.43-.83,2.25-1.31Z"/>
          <path class="cls-1" d="m65.07,86.6c.2.16.26.19.3.23,3.08,4.39,7.17,7.63,11.81,10.22,4.99,2.78,10.28,4.8,15.82,6.17,4.07,1,8.16,1.94,12.23,2.99,4.78,1.24,9.14,3.35,12.89,6.63,4.86,4.24,6.86,9.67,6.79,15.99,0,.12-.03.24-.06.43h-1.57c0-.32,0-.65,0-.97.03-6.6-2.7-11.79-7.97-15.71-3.1-2.3-6.58-3.78-10.28-4.74-3.43-.89-6.91-1.62-10.36-2.43-6.13-1.44-12.03-3.51-17.57-6.5-3.02-1.63-5.85-3.58-8.45-5.83-.93-.81-1.76-1.73-2.63-2.61-.81-.82-.81-1.9-.95-2.93-.04-.26,0-.53,0-.93Z"/>
        </g>
        <g>
          <path class="cls-1" d="m91.61,69.37c1.32-.32,2.08.31,2.64,1.43,1.01,2,1.1,1.46-.03,3.4-.89,1.54-.55,1.48-2.61,1.48-2.22,0-1.82.11-2.81-1.61-1.06-1.85-.97-1.23-.03-3.15.59-1.21,1.4-1.93,2.83-1.56Zm1.44,3.15c0-.85-.66-1.52-1.51-1.51-.83,0-1.53.71-1.51,1.53.02.79.68,1.45,1.48,1.46.85.02,1.53-.63,1.54-1.48Z"/>
          <path class="cls-1" d="m96.67,74.93c-.31-.83-.56-1.46-.77-2.11-.06-.19-.07-.43,0-.62.21-.64.47-1.27.72-1.96.75.19,1.36.59,1.86,1.14.64.7.67,1.58,0,2.24-.5.48-1.12.83-1.79,1.31Z"/>
          <path class="cls-1" d="m92.04,78.13c.54-.65.96-1.18,1.4-1.69.11-.13.28-.25.44-.29.69-.14,1.38-.26,2.11-.38.25.64.19,1.25.08,1.84-.22,1.24-1.12,1.79-2.31,1.39-.57-.19-1.09-.54-1.73-.87Z"/>
          <path class="cls-1" d="m86.43,70.08c.32.88.58,1.53.8,2.2.05.16.03.37-.02.53-.22.64-.46,1.27-.73,1.99-.73-.25-1.35-.61-1.85-1.16-.66-.73-.69-1.55,0-2.23.49-.49,1.12-.84,1.8-1.33Z"/>
          <path class="cls-1" d="m90.99,78.05c-.73.59-1.45,1.03-2.36,1.05-.61.01-1.08-.23-1.35-.78-.39-.79-.46-1.62-.22-2.56.77.13,1.48.26,2.2.39.11.02.23.09.31.18.47.56.93,1.12,1.42,1.71Z"/>
          <path class="cls-1" d="m87.07,69.25c-.24-.88-.17-1.66.14-2.41.26-.63.75-.95,1.45-.92.91.04,1.63.45,2.32,1.07-.47.57-.91,1.11-1.36,1.65-.08.09-.18.19-.29.21-.74.14-1.49.27-2.26.4Z"/>
          <path class="cls-1" d="m92.02,66.9c.67-.34,1.18-.69,1.76-.88,1.2-.39,2.1.16,2.3,1.4.09.56.02,1.15.02,1.84-.85-.15-1.72-.11-2.37-.48-.65-.37-1.07-1.15-1.71-1.88Z"/>
          <path class="cls-1" d="m87.71,73.35c.39.68.74,1.29,1.19,2.08-.65-.12-1.13-.2-1.64-.29-.09-.67.17-1.17.45-1.78Z"/>
          <path class="cls-1" d="m95.31,71.54c-.33-.58-.66-1.17-1.1-1.94.66.12,1.15.21,1.75.32-.17.59-.31,1.1-.45,1.61-.07,0-.14,0-.21,0Z"/>
          <path class="cls-1" d="m95.91,75.09c-.53.12-1.01.23-1.73.39.45-.8.79-1.39,1.16-2.06.42.51.48,1.05.57,1.66Z"/>
          <path class="cls-1" d="m87.13,69.94c.61-.14,1.12-.25,1.81-.4-.46.8-.82,1.42-1.28,2.21-.2-.69-.35-1.2-.53-1.81Z"/>
          <path class="cls-1" d="m90.3,76.29h2.5c-.45.5-.81.89-1.23,1.35-.43-.45-.8-.85-1.27-1.35Z"/>
          <path class="cls-1" d="m92.76,68.68c-.31.04-.45.08-.6.08-.54,0-1.08,0-1.62,0-.03-.06-.05-.12-.08-.18.33-.37.66-.74,1.07-1.2.41.43.77.81,1.23,1.3Z"/>
        </g>
        <path class="cls-1" d="m121.32,124.39c-.66-3.46-2.12-6.51-4.72-8.94-1.91-1.78-4.08-3.19-6.47-4.26-3.54-1.58-7.26-2.59-11.05-3.32-5.47-1.06-10.8-2.55-15.99-4.59-6.3-2.47-12.08-5.76-16.98-10.5-.07-.07-.18-.09-.36-.17,1.64,12.27,3.15,24.45,5,36.63h50.93c.11-1.7-.07-3.29-.37-4.87Zm-35.63,2.49l-2.15-3.31-1.28,1.18v2.13h-1.58v-7.05h1.58v3.13l3.2-3.13h2.13l-2.95,2.75,3.11,4.31h-2.05Zm9.01,0h-1.58v-3.08h-3.1v3.08h-1.58v-7.05h1.58v2.77h3.1v-2.77h1.58v7.05Zm7.18-5.86h-2.32v5.86h-1.58v-5.86h-2.32v-1.19h6.23v1.19Zm7.13,5.86h-1.59l-3.16-4.6v4.6h-1.47v-7.05h1.54l3.21,4.71v-4.71h1.47v7.05Z"/>
        <text class="cls-2" transform="translate(51.16 148.97) scale(.91)"><tspan x="0" y="0">ĐHQG-HCM</tspan></text>
        <text class="cls-5" transform="translate(37.22 135.78) rotate(-120.73) scale(1 .95)"><tspan x="0" y="0">T</tspan></text>
        <text class="cls-5" transform="translate(32.18 127.52) rotate(-112.2) scale(1 .95)"><tspan x="0" y="0">R</tspan></text>
        <text class="cls-5" transform="translate(27.72 116.92) rotate(-102.27) scale(1 .95)"><tspan x="0" y="0">Ư</tspan></text>
        <text class="cls-5" transform="translate(24.82 103.98) rotate(-91.67) scale(1 .95)"><tspan x="0" y="0">Ờ</tspan></text>
        <text class="cls-5" transform="translate(24.46 90.32) rotate(-81.6) scale(1 .95)"><tspan x="0" y="0">N</tspan></text>
        <text class="cls-5" transform="translate(26.05 78.93) rotate(-71.98) scale(1 .95)"><tspan x="0" y="0">G</tspan></text>
        <text class="cls-5" transform="translate(30.13 67.08) rotate(-65.29) scale(1 .95)"><tspan x="0" y="0"> </tspan></text>
        <text class="cls-5" transform="translate(31.68 63.16) rotate(-58.97) scale(1 .95)"><tspan x="0" y="0">Đ</tspan></text>
        <text class="cls-5" transform="translate(37.57 53.27) rotate(-49.83) scale(1 .95)"><tspan x="0" y="0">Ạ</tspan></text>
        <text class="cls-5" transform="translate(45.2 44.5) rotate(-43.54) scale(1 .95)"><tspan x="0" y="0">I</tspan></text>
        <text class="cls-5" transform="translate(48.32 41.52) rotate(-40.1) scale(1 .95)"><tspan x="0" y="0"> </tspan></text>
        <text class="cls-5" transform="translate(51.37 38.65) rotate(-33.78) scale(1 .95)"><tspan x="0" y="0">H</tspan></text>
        <text class="cls-5" transform="translate(60.89 32.17) rotate(-24.16) scale(1 .95)"><tspan x="0" y="0">Ọ</tspan></text>
        <text class="cls-5" transform="translate(72.23 27.08) rotate(-14.55) scale(1 .95)"><tspan x="0" y="0">C</tspan></text>
        <text class="cls-5" transform="translate(83.51 24.33) rotate(-8.28) scale(1 .95)"><tspan x="0" y="0"> </tspan></text>
        <text class="cls-5" transform="translate(87.63 23.5) rotate(-2.05) scale(1 .95)"><tspan x="0" y="0">K</tspan></text>
        <text class="cls-5" transform="translate(99.14 23.04) rotate(7.17) scale(1 .95)"><tspan x="0" y="0">H</tspan></text>
        <text class="cls-5" transform="translate(110.57 24.38) rotate(16.79) scale(1 .95)"><tspan x="0" y="0">O</tspan></text>
        <text class="cls-5" transform="translate(122.47 27.96) rotate(26.37) scale(1 .95)"><tspan x="0" y="0">A</tspan></text>
        <text class="cls-5" transform="translate(132.28 32.97) rotate(32.18) scale(1 .95)"><tspan x="0" y="0"> </tspan></text>
        <text class="cls-5" transform="translate(135.95 35.01) rotate(38.46) scale(1 .95)"><tspan x="0" y="0">H</tspan></text>
        <text class="cls-5" transform="translate(145.02 42.1) rotate(47.98) scale(1 .95)"><tspan x="0" y="0">Ọ</tspan></text>
        <text class="cls-5" transform="translate(153.35 51.33) rotate(57.55) scale(1 .95)"><tspan x="0" y="0">C</tspan></text>
        <text class="cls-5" transform="translate(159.43 61.22) rotate(63.89) scale(1 .95)"><tspan x="0" y="0"> </tspan></text>
        <text class="cls-5" transform="translate(161.43 64.94) rotate(69.54) scale(1 .95)"><tspan x="0" y="0">T</tspan></text>
        <text class="cls-5" transform="translate(164.99 73.92) rotate(78.72) scale(1 .95)"><tspan x="0" y="0">Ự</tspan></text>
        <text class="cls-5" transform="translate(167.37 87.11) rotate(85.64) scale(1 .95)"><tspan x="0" y="0"> </tspan></text>
        <text class="cls-5" transform="translate(167.92 91.28) rotate(91.94) scale(1 .95)"><tspan x="0" y="0">N</tspan></text>
        <text class="cls-5" transform="translate(167.57 102.79) rotate(101.2) scale(1 .95)"><tspan x="0" y="0">H</tspan></text>
        <text class="cls-5" transform="translate(165.14 114.16) rotate(107.56) scale(1 .95)"><tspan x="0" y="0">I</tspan></text>
        <text class="cls-5" transform="translate(164.06 118.22) rotate(113.54) scale(1 .95)"><tspan x="0" y="0">Ê</tspan></text>
        <text class="cls-5" transform="translate(159.9 127.97) rotate(122.35) scale(1 .95)"><tspan x="0" y="0">N</tspan></text>
      </g>
    </g>
  </g>
</svg>